<svg width="487.3745360363387" height="884.2958701235996" viewBox="0 0 487.3745360363387 884.2958701235996" xmlns="http://www.w3.org/2000/svg"><g><path fill-rule="nonzero" d="
M 446.279499424428 865.9943818081908 L 448.4591988897188 865.994381808191 L 448.5508234427741 869.7624427837976 L 452.293570795179 869.7624427837976 L 452.554666326066 880.5 L 448.81191897366114 880.5 L 448.9000989946467 884.1264045479522 L 446.720399529356 884.1264045479522 L 446.279499424428 865.9943818081908 
M 446.56573607361685 861.5206493820012 L 446.0185143243117 865.3165195056009 L 449.1756920778151 865.3165195056009 L 446.43958333128927 884.2958701235996 L 441.05530895144346 884.2958701235996 L 441.6025307007486 880.4999999999999 L 441.28905324472765 880.4999999999999 L 442.9093426430609 869.2606658059037 L 443.2228200990819 869.2606658059037 L 443.77004184838705 865.464795682304 L 443.4565643923661 865.464795682304 L 444.02516199125347 861.5206493820012 L 446.56573607361685 861.5206493820012 
M 447.67701335176673 869.2606658059037 L 445.4499167254243 869.2606658059037 L 443.85100317667326 880.3517238232968 L 446.0780998030157 880.3517238232968 L 447.67701335176673 869.2606658059037 
M 441.6457440885614 880.5020840991114 L 438.17501009952855 880.1416481881523 L 441.7920753351061 868.663749442553 L 445.26280932413897 869.0241853535122 L 441.6457440885614 880.5020840991114 
M 446.48440391557415 865.1477446162121 L 443.0136699265413 864.787308705253 L 444.28298305670444 860.7594445016522 L 447.75371704573723 861.1198804126113 L 446.48440391557415 865.1477446162121 
M 431.02246070890993 862.3424211121493 L 429.6959496172344 866.4687714736309 L 433.9951074282769 866.9152392429489 L 428.6890630615748 883.4206406888752 L 421.02061131499437 882.6242715635956 L 427.65316677337194 861.9925197561878 L 431.02246070890993 862.3424211121493 
M 420.95613609353956 882.8806934672355 L 419.9768709358258 882.6681575212581 L 425.64665944368176 865.3340608442334 L 421.1190984073066 864.351416398797 L 415.4493098994506 881.6855130758217 L 411.70023707972064 880.8718287207691 L 418.8573665570931 858.9905232507577 L 428.113265570912 860.9993879972241 L 420.95613609353956 882.8806934672355 
M 411.63446042905576 881.1660770378516 L 405.99954468487465 879.7740593661779 L 412.1977349859091 861.1412952750078 L 417.0059121719932 862.3290801355852 L 418.5554597472518 857.6708891127926 L 419.3821983053488 857.875121923889 L 411.63446042905576 881.1660770378516 
M 409.42823212189876 854.6482508687914 L 398.41224603229307 878.2207155679138 L 396.9238400291053 877.8978714641635 L 407.939826118711 854.325406765041 L 409.42823212189876 854.6482508687914 
M 396.6289392284892 877.9813257682531 L 388.7533303563679 875.0391801397659 L 402.9194027735075 851.4375962928123 L 410.7950116456288 854.3797419212996 L 396.6289392284892 877.9813257682531 
M 392.64045649535143 844.8484073792094 L 388.9174792289426 850.0389915644495 L 392.32356102397335 851.1392745681123 L 381.5745138788532 866.1256228924144 L 378.16843208382255 865.0253398887514 L 374.72537792015123 869.8256545863794 L 373.990591689745 869.5882930521318 L 391.9056702649452 844.6110458449617 L 392.64045649535143 844.8484073792094 
M 373.70431009357844 869.6673681241181 L 365.53994508095764 864.9440952500803 L 369.89625036241904 859.7881225723704 L 373.6366640710559 861.9520379020222 L 385.88672553922555 847.4532876654546 L 382.1463118305887 845.2893723358027 L 386.5026171120501 840.1333996580928 L 394.6669821246709 844.8566725321306 L 373.70431009357844 869.6673681241181 
M 365.46358604660804 865.3023697981985 L 357.92551021707 860.255201974907 L 362.08371080815124 855.1774244574658 L 361.7046727060633 854.923637024715 L 366.20093838585035 849.4330320668315 L 372.2184320522011 853.4620841878854 L 368.0602314611198 858.5398617053265 L 369.9598517263951 859.8117648403148 L 365.46358604660804 865.3023697981985 
M 382.60348604399167 844.3720185677702 L 380.7038657787165 843.1001154327818 L 376.37663264328233 848.3843066704442 L 370.3591389769316 844.3552545493903 L 374.68637211236575 839.0710633117279 L 375.0654102144536 839.3248507444788 L 379.5616758942407 833.8342457865953 L 387.09975172377875 838.8814136098866 L 382.60348604399167 844.3720185677702 
M 361.96951313479633 855.0901015738555 L 358.67476165884403 853.153358825416 L 363.77883729358985 847.7922035966963 L 367.07358876954214 849.7289463451357 L 361.96951313479633 855.0901015738555 
M 371.79389931896867 844.7708854945151 L 368.4991478430164 842.8341427460757 L 373.41134093510254 837.6745347064056 L 376.70609241105484 839.611277454845 L 371.79389931896867 844.7708854945151 
M 370.9907230978025 823.8577275951573 L 343.01407563088407 849.949078188097 L 337.6679602629928 844.9825962972707 L 365.6446077299113 818.8912457043309 L 370.9907230978025 823.8577275951573 
M 337.3593294860646 844.919227590958 L 333.77357410872276 841.8181242012563 L 339.9283128810682 836.8810422509654 L 339.34239221726284 836.374314835006 L 357.8066085342993 821.5630689841332 L 358.3925291981047 822.0697964000926 L 364.5472679704502 817.1327144498017 L 368.13302334779206 820.2338178395034 L 337.3593294860646 844.919227590958 
M 339.5850147980862 836.5860217709271 L 335.25933650128013 831.5838968134922 L 328.56926019243593 836.1443524214649 L 326.48735274714755 833.7368776911236 L 339.867505364836 824.6159664751781 L 341.9494128101244 827.0234412055195 L 348.6394891189686 822.4629855975467 L 346.5575816736802 820.0555108672053 L 359.93773429136866 810.9345996512598 L 362.01964173665704 813.3420743816012 L 355.3295654278128 817.902529989574 L 359.65524372461886 822.9046549470089 L 339.5850147980862 836.5860217709271 
M 326.3515421556727 833.8061203998049 L 321.1020751812788 825.9284183338842 L 327.93665240716547 821.3095443317362 L 330.44533116657374 825.0742358598706 L 337.27990839246036 820.4553618577224 L 340.02069660744604 824.5683723955088 L 326.3515421556727 833.8061203998049 
M 346.8552738333327 819.9494983933608 L 344.11448561834703 815.8364878555744 L 350.9490628442337 811.2176138534264 L 348.4403840848255 807.4529223252921 L 355.2749613107121 802.8340483231441 L 360.524428285106 810.7117503890647 L 346.8552738333327 819.9494983933608 
M 320.85607830441097 825.7253450322825 L 319.5843449071351 824.0067239324983 L 326.8466531381477 819.8368548201403 L 328.11838653542355 821.5554759199244 L 320.85607830441097 825.7253450322825 
M 349.9053112284613 809.0458685828502 L 348.63357783118545 807.327247483066 L 355.89588606219803 803.157378370708 L 357.1676194594739 804.8759994704922 L 349.9053112284613 809.0458685828502 
M 350.3143817188531 782.2502455347551 L 306.1615769191457 787.4520025651866 L 306.1383622122494 787.2283335041711 L 350.29116701195676 782.0265764737397 L 350.3143817188531 782.2502455347551 
M 306.12500003645886 786.9227587221726 L 305.1249999276931 777.293489659347 L 349.50000001731325 775.1167042802728 L 350.50000012607893 784.7459733430984 L 306.12500003645886 786.9227587221726 
M 305.1054374276183 776.9771381252474 L 305.1054374276183 771.3269730651393 L 349.5782502895269 772.2960935100989 L 349.5782502895269 777.946258570207 L 305.1054374276183 776.9771381252474 
M 322.5471187218981 773.0226672890773 L 322.5471187218981 771.7070499896469 L 314.34744385048367 771.5283684076074 L 314.34744385048367 772.8439857070379 L 322.5471187218981 773.0226672890773 
M 340.33624386666156 773.4103154670612 L 340.33624386666156 772.0946981676308 L 331.7891251447635 771.9084453321151 L 331.7891251447635 773.2240626315455 L 340.33624386666156 773.4103154670612 
M 305.1249999278027 771.0114741180716 L 306.12500003656885 761.3822050552416 L 350.50000012564004 765.4929683890872 L 349.50000001687386 775.1222374519173 L 305.1249999278027 771.0114741180716 
M 322.52832027523533 772.6236641130643 L 323.17096281443145 766.4354868649888 L 314.98932217300893 765.677564875311 L 314.3466796338128 771.8657421233864 L 322.52832027523533 772.6236641130643 
M 340.27832031086376 774.2679694466025 L 340.9209628500599 768.079792198527 L 332.39264252044154 767.2897548703036 L 331.7499999812454 773.477932118379 L 340.27832031086376 774.2679694466025 
M 306.1249999278033 761.3808230740296 L 306.7237420994785 755.6153742307913 L 315.5987421172922 756.4389099261107 L 316.0000000543831 752.575089706519 L 342.2783204196284 755.0135274293789 L 341.8770624825375 758.8773476489707 L 351.0987421885471 759.7330527073885 L 350.50000001687187 765.498501550627 L 306.1249999278033 761.3808230740296 
M 315.9992083683816 752.580062817353 L 316.7792707881471 747.680146889451 L 342.87303908398087 750.0460718205433 L 342.09297666421537 754.9459877484453 L 315.9992083683816 752.580062817353 
M 355.2528720526858 733.57262873761 L 311.5028719622775 729.6930883095301 L 312.750000096562 723.9469114758061 L 356.50000018697034 727.826451903886 L 355.2528720526858 733.57262873761 
M 312.7771717998691 723.9578231441856 L 314.5584408872688 714.6501103007395 L 358.171669987423 718.4798600060315 L 356.39040090002334 727.7875728494777 L 312.7771717998691 723.9578231441856 
M 314.6202721404214 714.6770474607064 L 316.341369370857 705.3431211565627 L 350.64445679480747 708.2802367814938 L 349.3110938060159 715.5113865701105 L 358.3097340967169 716.2818725230017 L 357.92199985507284 718.3846490385288 L 314.6202721404214 714.6770474607064 
M 316.3667809833137 705.3540490587624 L 318.4409112727521 696.1694439430462 L 361.6140153156178 699.830764951065 L 359.83030406258973 707.7293446993785 L 350.8583933786817 706.9684764273997 L 350.5679743422713 708.2545017948023 L 316.3667809833137 705.3540490587624 
M 332.01933622525326 713.9775423678111 L 333.6360226004599 706.8185774619699 L 325.33869166722167 706.1149173307413 L 323.722005292015 713.2738822365825 L 332.01933622525326 713.9775423678111 
M 333.6360226004599 706.8185774619699 L 333.9264416368703 705.5325520945672 L 325.629110703632 704.8288919633386 L 325.33869166722167 706.1149173307413 L 333.6360226004599 706.8185774619699 
M 318.3774594319758 696.1460112430442 L 318.5236390201259 695.6010110507564 L 326.88097489089307 696.330816513473 L 329.1402381073772 687.9076234877266 L 338.1770321790197 688.6967627278999 L 335.91776896253555 697.1199557536463 L 352.97216980450753 698.6092335678079 L 355.23143302099163 690.1860405420616 L 364.2682270926341 690.9751797822348 L 361.86278428799983 699.943373000269 L 318.3774594319758 696.1460112430442 
M 359.99876997305444 671.8857107117617 L 359.65253646843917 673.2360251670765 L 333.65431636077545 670.9877701263973 L 334.0005498653907 669.6374556710825 L 359.99876997305444 671.8857107117617 
M 370.7062218584719 665.6323814378704 L 362.01854606208815 664.872665128703 L 360.0616222821935 671.9238119316029 L 333.9985948930422 669.6446630041007 L 335.95551867293676 662.5935162012008 L 327.267842876553 661.8337998920334 L 327.81372931057405 659.8668733190416 L 371.25210829249295 663.6654548648787 L 370.7062218584719 665.6323814378704 
M 327.7925827859015 659.8650317603639 L 330.44700099339667 650.9156736916411 L 373.9805391729631 654.7607389877581 L 371.32612096546796 663.7100970564809 L 327.7925827859015 659.8650317603639 
M 364.1849147089306 656.4862992042553 L 364.93372577002197 653.9616863559089 L 339.4938143963378 651.7147263234905 L 338.74500333524645 654.239339171837 L 364.1849147089306 656.4862992042553 
M 330.4456549407056 650.9191349931348 L 332.79392478428565 641.8429086728828 L 376.32747309961917 645.6948900743082 L 373.9792032560391 654.7711163945603 L 330.4456549407056 650.9191349931348 
M 364.9323877467589 653.9706265095765 L 366.46103826053957 648.062285921899 L 341.0211209637665 645.811284290441 L 339.49247044998583 651.7196248781186 L 364.9323877467589 653.9706265095765 
M 332.74999980505766 641.8260192840611 L 334.52112894396447 636.6302107012338 L 343.2711289620409 637.4199490723537 L 344.5000001768658 633.8149157267235 L 370.75000023109516 636.1841308400832 L 369.52112901627027 639.7891641857135 L 378.2711290343467 640.5789025568334 L 376.4999998954399 645.7747111396607 L 332.74999980505766 641.8260192840611 
M 344.49993132496155 633.8151899258065 L 345.70896082349714 628.9970278249813 L 371.91463969643985 631.3520244723333 L 370.7056101979042 636.1701865731586 L 344.49993132496155 633.8151899258065 
M 378.4834544473286 609.2682146252488 L 376.9200687001182 614.5509321576474 L 341.80619098247735 611.3282594614685 L 343.3695767296878 606.0455419290699 L 378.4834544473286 609.2682146252488 
M 388.10170020655414 606.8839635697674 L 379.3217759774473 606.0763082224819 L 378.4872655494827 609.2761553456942 L 343.3675686330554 606.045533956552 L 345.731993058219 596.9793839824096 L 389.6316142037532 601.0176607188373 L 388.10170020655414 606.8839635697674 
M 345.7602161682524 596.9907063948249 L 346.6425874109535 594.3906274891327 L 355.3940470684184 595.1878855851771 L 357.50000078777924 588.9822823457606 L 392.5058394176387 592.1713147299379 L 389.5175144555767 600.9769968750464 L 345.7602161682524 596.9907063948249 
M 357.49926844516585 588.9847529711598 L 360.1519399782233 580.0345012708327 L 395.32667442922923 583.2989159644832 L 392.6740028961718 592.2491676648101 L 357.49926844516585 588.9847529711598 
M 360.15105770664735 580.0374385013787 L 360.6876121766582 578.3680512603315 L 351.83149719702936 577.5246825413959 L 354.14403573711274 570.3296584590005 L 398.42461063525707 574.5465020536786 L 395.5755176251628 583.4109133771212 L 360.15105770664735 580.0374385013787 
M 354.15920678297357 570.3368225637395 L 356.88233879484653 561.4178587539014 L 392.24364665761027 564.7706612929971 L 389.9115615531505 572.4088450304919 L 398.7518885188414 573.2470456652658 L 398.3608416114282 574.5278257376091 L 354.15920678297357 570.3368225637395 
M 356.8932505026717 561.4234919791019 L 357.12157243397104 560.5505273166709 L 392.43662731908796 563.8897390052423 L 392.20830538778864 564.7627036676732 L 356.8932505026717 561.4234919791019 
M 406.4524414612912 547.7634133303033 L 362.13508771262474 543.5105741027485 L 362.13658762767477 543.5060145649243 L 406.4539413763412 547.758853792479 L 406.4524414612912 547.7634133303033 
M 362.16776042160967 543.5204783643807 L 364.82072893245834 534.5704749433728 L 408.97835127325783 538.7639448809965 L 406.3253827624091 547.7139483020044 L 362.16776042160967 543.5204783643807 
M 364.8585507017788 534.5874827288301 L 367.3889005601354 526.6062210611489 L 376.1818764731301 527.430356572674 L 376.46609083903223 526.5338840092111 L 394.0520426650216 528.1821550322612 L 393.76782829911946 529.0786275957241 L 411.35378012510876 530.7268986187743 L 408.82343026675215 538.7081602864554 L 364.8585507017788 534.5874827288301 
M 376.46553601325996 526.5358486934496 L 378.61527964706806 518.9055498409188 L 387.4518776837669 519.7491167277179 L 387.8371411868569 518.381662665141 L 405.5103372602546 520.0687964387392 L 405.1250737571645 521.4362505013163 L 396.2884757204657 520.5926836145171 L 394.13873208665757 528.2229824670479 L 376.46553601325996 526.5358486934496 
M 387.87499984093364 518.4009016202433 L 390.2899232646931 511.3164493482962 L 372.53992322909403 509.5946944159406 L 373.12500015906636 507.87830475942974 L 417.50000024806405 512.1826920903188 L 416.9149233180917 513.8990817468297 L 408.0399233002922 513.0382042806518 L 405.62499987653274 520.122656552599 L 387.87499984093364 518.4009016202433 
M 373.1421101402095 507.8844331623799 L 376.00441049795154 499.0257159164371 L 420.2932618677823 503.30131439610545 L 417.4309615100403 512.1600316420482 L 373.1421101402095 507.8844331623799 
M 376.03055570588845 499.03569229830515 L 378.13112281666105 492.699604869174 L 422.28848553948615 496.92766873911705 L 420.18791842871354 503.26375616824816 L 376.03055570588845 499.03569229830515 
M 437.863559908886 446.0764426714654 L 393.9208905592979 441.8958114671396 L 395.5602483226976 436.8123717228565 L 439.50291767228566 440.9930029271823 L 437.863559908886 446.0764426714654 
M 395.5165639597804 436.7956927187739 L 398.16924500935806 427.84544538856073 L 442.32667746740475 432.1218158995726 L 439.6739964178271 441.0720632297858 L 395.5165639597804 436.7956927187739 
M 398.14271033921983 427.8362702160504 L 401.000150806568 418.97547880038087 L 410.2032952634102 419.8766728267925 L 408.2829651653265 425.83152810472 L 416.4481609992166 426.63108370710023 L 418.3684910973003 420.67622842917274 L 427.5716355541425 421.5774224555843 L 425.6513054560588 427.5322777335119 L 443.3656286211085 429.26690683698087 L 442.428518251844 432.1728429747229 L 398.14271033921983 427.8362702160504 
M 401.0268980498514 418.98573484444836 L 403.954594645087 410.1547189258188 L 413.12977974093934 411.04577218729276 L 410.2020831457037 419.8767881059223 L 401.0268980498514 418.98573484444836 
M 418.34247292999373 420.66734663865856 L 421.2701695252294 411.836330720029 L 430.44535462108166 412.72738398150295 L 427.517658025846 421.5583999001325 L 418.34247292999373 420.66734663865856 
M 403.9986691955718 410.1735301408859 L 404.64260062388433 408.05834997965366 L 413.77144726385046 408.93162918283474 L 413.1275158355379 411.04680934406696 L 403.9986691955718 410.1735301408859 
M 421.22679330558304 411.82159841155095 L 421.8707247338956 409.7064182503187 L 430.9995713738617 410.5796974534998 L 430.35563994554917 412.69487761473204 L 421.22679330558304 411.82159841155095 
M 447.4916695985743 386.8662306826384 L 445.2388690972691 394.68762807013144 L 418.832691162285 392.13766167978133 L 421.08549166359023 384.31626429228834 L 447.4916695985743 386.8662306826384 
M 456.5487081961793 387.07669641456533 L 447.7309920898659 386.2188192803479 L 447.5371542878474 386.89506186035715 L 421.08400596890726 384.3214304577049 L 421.27784377092576 383.64518787769566 L 412.4601276646124 382.7873107434782 L 414.84057234018417 374.48264554290915 L 458.92915287175106 378.77203121399623 L 456.5487081961793 387.07669641456533 
M 414.88339239477267 374.50091385354324 L 417.79503609949643 365.663339442908 L 461.6670298666623 369.8700137782806 L 458.75538616193853 378.7075881889159 L 414.88339239477267 374.50091385354324 
M 449.7090254810159 377.61852913831484 L 452.4693003243624 369.24039747258144 L 426.83160396667483 366.78212215784805 L 424.0713291233283 375.16025382358146 L 449.7090254810159 377.61852913831484 
M 417.81070492669176 365.6686183323723 L 420.5040348730656 357.553852478228 L 429.26271493611307 358.3900591268747 L 429.5000302740634 357.67504892039886 L 455.7760704632057 360.18366886633896 L 455.53875512525536 360.8986790728148 L 464.2974351883028 361.73488572146147 L 461.60410524192895 369.8496515756058 L 417.81070492669176 365.6686183323723 
M 429.4997682613918 357.6758722300028 L 431.932800614754 349.9895633849794 L 458.25388115097746 352.52096768226903 L 455.8208487976152 360.2072765272925 L 429.4997682613918 357.6758722300028 
M 472.45005808699887 336.55441264358666 L 463.63283993819834 335.6898087652563 L 464.2315960240479 333.56815760422177 L 473.0488141728485 334.4327614825521 L 472.45005808699887 336.55441264358666 
M 437.7799415776463 330.97434596923074 L 437.1811854917967 333.09599713026523 L 428.36396734299615 332.2313932519349 L 428.9627234288458 330.1097420909004 L 437.7799415776463 330.97434596923074 
M 464.1346012829462 333.5338404504141 L 466.0713615363104 327.1848324875166 L 457.28631612100884 326.33218868798485 L 458.0705639530699 323.7612996365435 L 475.6406547836731 325.46658723560694 L 472.91964669824785 334.3864842499458 L 464.1346012829462 333.5338404504141 
M 449.28551853776827 322.90865583701185 L 448.50127070570727 325.4795448884532 L 439.71622529040565 324.6269010889215 L 437.77946503704146 330.97590905181903 L 428.99441962173984 330.1232652522873 L 431.7154277071651 321.20336823794844 L 449.28551853776827 322.90865583701185 
M 457.999999859249 323.7366183248542 L 459.9725184251755 317.950010973934 L 451.22251840711806 317.110483575 L 449.24999984119154 322.8970909259202 L 431.7499998050766 321.2180361280522 L 433.7225183710031 315.431428777132 L 442.47251838906055 316.27095617606597 L 443.50000017686597 313.25672159852803 L 469.75000023103837 315.77530379533005 L 468.722518443233 318.78953837286804 L 477.47251846129046 319.629065771802 L 475.49999989536394 325.41567312272224 L 457.999999859249 323.7366183248542 
M 443.49912203827546 313.2597306996753 L 446.1156909236653 304.29332294913354 L 472.5104450850857 306.87591559833396 L 469.89387619969585 315.8423233488757 L 443.49912203827546 313.2597306996753 
M 446.11447049000697 304.2975534661033 L 447.5038750988489 299.3401788398347 L 438.68857166477 298.47084894514654 L 439.8219467024752 294.426983955632 L 457.45255357063303 296.1656437450083 L 456.3191785329278 300.20950873452284 L 465.1344819670067 301.078838629211 L 466.2678570047119 297.03497363969643 L 483.8984638728697 298.77363342907273 L 482.7650888351645 302.8174984185873 L 473.9497854010856 301.94816852389914 L 472.5603807922437 306.9055431501677 L 446.11447049000697 304.2975534661033 
M 439.86966381538514 294.44713398359477 L 442.7329918083189 285.58885502750127 L 451.50011782877704 286.4396213558401 L 450.064108262247 290.882204725728 L 458.83123428270505 291.73297105406675 L 457.40391585630135 296.1486666402723 L 439.86966381538514 294.44713398359477 
M 466.17104187675943 296.99943296861113 L 467.5983603031632 292.58373738240556 L 476.3654863236213 293.43450371074437 L 477.8014958901514 288.99192034085644 L 486.56862191060947 289.84268666919525 L 483.7052939176757 298.70096562528875 L 466.17104187675943 296.99943296861113 
M 442.7569705982284 285.5978791423344 L 443.65945536056523 281.56285489298455 L 452.40247149571996 282.4050209486874 L 451.49998673338314 286.4400451980373 L 442.7569705982284 285.5978791423344 
M 477.7290351388472 288.966543365146 L 478.63151990118405 284.9315191157961 L 487.3745360363387 285.773685171499 L 486.4720512740019 289.80870942084886 L 477.7290351388472 288.966543365146 
M 469.8195302088402 238.8557387320915 L 472.7508841942139 240.3691773205391 L 464.7942533300563 245.39518467130125 L 461.8628993446826 243.88174608285368 L 469.8195302088402 238.8557387320915 
M 472.29578221231964 231.1540626777855 L 465.662938299315 236.54945618198326 L 467.28164286609854 237.47161600554296 L 460.3897034877422 243.07776706849845 L 455.8012424753539 240.46376666075128 L 469.32602576671485 229.462222093598 L 472.29578221231964 231.1540626777855 
M 454.64266079233295 240.15655420782193 L 452.7905258111323 238.9843435473953 L 458.67149002424816 233.33886129460186 L 453.8622260353996 230.29509257701108 L 459.9729154130903 224.42908367371788 L 466.6343143831395 228.64506305173526 L 454.64266079233295 240.15655420782193 
M 451.9101036941088 229.94390793077827 L 451.0681387735075 229.67242752419804 L 430.84402763472013 252.67306751618815 L 426.6766144705622 251.32934048848085 L 452.2060644287947 222.2950020370535 L 457.21544251355397 223.91020947134103 L 451.9101036941088 229.94390793077827 
M 428.38974860618634 251.81701206443137 L 424.1559390764489 250.77982803931317 L 440.0817975276243 226.26867482543875 L 444.2006712386344 227.27770227094214 L 448.1821358514283 221.14991396747354 L 448.2970716701557 221.17807054708834 L 428.38974860618634 251.81701206443137 
M 424.0604990857865 217.63076609965282 L 422.4584735420533 224.09182333535662 L 426.24067284821837 224.48483072302338 L 419.8325706732856 250.32905966583849 L 415.98347102936003 249.92910068074153 L 423.99359874802605 217.62381450222261 L 424.0604990857865 217.63076609965282 
M 416.90015353663483 249.99404565553658 L 410.44988435282613 249.96338175286562 L 414.38280046426445 224.24087356276186 L 410.80924393254435 224.22388525009535 L 411.84095565408535 217.47616613908195 L 421.86478136961415 217.5238183544194 L 416.90015353663483 249.99404565553658 
M 410.74077983378334 224.40857172922261 L 407.80113789759224 224.27365630273113 L 403.96517414693756 249.7493476925953 L 397.0407631493013 249.43155053116314 L 400.9145569172209 223.7046195812411 L 401.389314235319 223.72640865876875 L 402.3577626772989 217.29467592128822 L 411.7470582930281 217.72559943168426 L 410.74077983378334 224.40857172922261 
M 397.0833877205634 249.33894817143255 L 391.17911456606873 249.16675320589655 L 394.90474792002175 223.81114885438964 L 400.8090210745164 223.98334381992564 L 397.0833877205634 249.33894817143255 
M 383.0692380984046 217.42221413275888 L 378.5347503831377 248.804036673787 L 377.225577996783 248.77634653568663 L 381.7600657120498 217.3945239946585 L 383.0692380984046 217.42221413275888 
M 377.23595452536017 248.75000002499763 L 367.1924719324797 248.75000002499763 L 371.6793281896131 217.49999990000921 L 381.7228107824936 217.49999990000921 L 377.23595452536017 248.75000002499763 
M 367.20897400370677 248.62840471301712 L 365.9401242736211 248.62568831580253 L 366.8379258815734 242.49731985122358 L 358.43509730164186 242.4793307863185 L 360.2307005175465 230.2225938571606 L 368.633529097478 230.24058292206567 L 370.42913231338264 217.9838459929078 L 371.69798204346836 217.98656239012237 L 367.20897400370677 248.62840471301712 
M 358.4520395705756 242.47936701347862 L 354.4082989526066 242.48768140301814 L 353.5092298750648 248.4902610535393 L 347.5180146718272 248.50257967179925 L 352.01336005953607 218.48968141919346 L 358.00457526277364 218.47736280093352 L 356.20643710769014 230.48252210197583 L 360.25017772565917 230.47420771243628 L 358.4520395705756 242.47936701347862 
M 347.53312329191976 248.37585624126282 L 341.40760813847726 248.37585624126282 L 345.9158667581416 218.99657503494882 L 352.0413819115841 218.99657503494882 L 347.53312329191976 248.37585624126282 
M 335.6140831537897 219.6955109896042 L 334.17386279420543 248.45005194304915 L 333.25972299209496 248.49213438177844 L 334.6999433516792 219.73759342833353 L 335.6140831537897 219.6955109896042 
M 334.1629414817131 248.3231032761202 L 324.41612283372257 249.09825787675416 L 323.55104743118216 232.30630409834717 L 323.77729308669586 232.28831101085075 L 323.20057615166894 221.09367515857943 L 332.7211491441457 220.33651364544187 L 334.1629414817131 248.3231032761202 
M 324.36554774272855 248.93753290733832 L 314.519298316799 249.43803485187863 L 313.8562170382018 233.1246832130533 L 323.7024664641313 232.62418126851296 L 324.36554774272855 248.93753290733832 
M 324.15277586335935 238.263162638048 L 323.93212742781213 238.2743785809186 L 324.1358867790477 243.28733559493264 L 324.35653521459494 243.27611965206202 L 324.15277586335935 238.263162638048 
M 323.93212742781213 238.2743785809186 L 318.9690163733346 238.52666212831627 L 319.1727757245702 243.5396191423303 L 324.1358867790477 243.28733559493264 L 323.93212742781213 238.2743785809186 
M 314.47601243511673 249.3125396529924 L 313.7706106608254 249.34839644926504 L 313.60930287247083 244.2431366312888 L 308.33931073439237 244.51101947669736 L 308.1714457188689 239.1982287718115 L 313.4414378569474 238.93034592640294 L 313.26701561425506 233.4100243346075 L 313.97241738854643 233.3741675383349 L 314.47601243511673 249.3125396529924 
M 297.41226620276916 224.29664803179898 L 298.04930443791886 249.7701251691025 L 295.0423375014134 249.85072356703154 L 294.4052992662637 224.37724642972802 L 297.41226620276916 224.29664803179898 
M 295.02879030699995 249.59695226254465 L 285.68545919090866 251.34590402901068 L 285.60834144619554 246.3128990086671 L 288.18363273402326 245.83083750500765 L 288.1152124793154 241.3654646298156 L 285.5399211914876 241.84752613347504 L 285.46280344677444 236.81452111313146 L 288.0380947346022 236.332459609472 L 287.9667753165593 231.67787601922944 L 285.3914840287315 232.15993752288887 L 285.3143662840183 227.1269325025453 L 294.65769740010967 225.37798073607925 L 295.02879030699995 249.59695226254465 
M 285.63597221662263 251.18701900968418 L 278.8862217250234 252.26157350791715 L 278.87751724337323 247.39062688374614 L 285.6272677349725 246.31607238551317 L 285.63597221662263 251.18701900968418 
M 285.6195449617792 241.99448064376745 L 278.8697944701799 243.06903514200042 L 278.8610899885298 238.1980885178294 L 285.610840480129 237.12353401959643 L 285.6195449617792 241.99448064376745 
M 285.6027904707834 232.61882398370892 L 278.85303997918413 233.69337848194192 L 278.844335497534 228.8224318577709 L 285.5940859891333 227.74787735953794 L 285.6027904707834 232.61882398370892 
M 270.82966721230554 231.21904807045982 L 273.5069892957826 253.571891680072 L 272.0460642998078 254.07019993726556 L 269.36874221633076 231.71735632765336 L 270.82966721230554 231.21904807045982 
M 272.8593083634452 253.67175181227802 L 263.8825230336648 256.2884570112861 L 258.6377790261919 235.41852791757938 L 267.6145643559722 232.80182271857132 L 272.8593083634452 253.67175181227802 
M 262.81812377443515 238.8547117685788 L 259.7277023902448 239.7555600573653 L 262.79259966961183 251.9514248715002 L 265.88302105380217 251.05057658271366 L 262.81812377443515 238.8547117685788 
M 263.83871815429757 256.15512404203065 L 258.89212491922876 258.0710194685191 L 257.89824378558075 254.02673870931736 L 254.18268573555585 255.4658343326299 L 251.23986581639497 243.490971772181 L 254.95542386641986 242.05187614886847 L 253.92271925098873 237.84961567251042 L 258.8693124860576 235.933720246022 L 263.83871815429757 256.15512404203065 
M 259.9020171014887 240.13598072238005 L 259.03685595070414 240.47107160477006 L 261.94085238808185 252.28795444806264 L 262.80601353886647 251.9528635656726 L 259.9020171014887 240.13598072238005 
M 254.20036728693097 255.4578893840001 L 253.9999786887906 255.55110710562752 L 251.25531638549262 244.0437384809519 L 251.45570498363298 243.9505207593245 L 254.20036728693097 255.4578893840001 
M 226.59917007065795 253.4932760782608 L 228.47138091732026 256.63494375688396 L 231.65147823094884 254.71933271187442 L 237.26811077093583 264.14433574774387 L 234.08801345730726 266.0599467927534 L 235.96022430396957 269.20161447137656 L 235.4520293448287 269.5077383980176 L 226.09097511151708 253.79940000490177 L 226.59917007065795 253.4932760782608 
M 235.3993137634995 269.33310328599185 L 227.3422624234859 274.152878237294 L 218.32934396652612 259.2668632731429 L 226.38639530653973 254.44708832184082 L 235.3993137634995 269.33310328599185 
M 225.72457037672189 259.0569335910873 L 222.70762600090885 260.861687255719 L 227.9745502241947 269.5607022503948 L 230.99149460000777 267.75594858576306 L 225.72457037672189 259.0569335910873 
M 227.29737592489698 274.0196915264943 L 226.83230907656346 274.3517412342753 L 225.08373816385955 271.50167222205584 L 222.3415220476785 273.45956722857613 L 217.09580930956682 264.9093601919176 L 219.8380254257479 262.9514651853973 L 218.08945451304402 260.10139617317776 L 218.55452136137757 259.7693464653967 L 227.29737592489698 274.0196915264943 
M 205.0404023363989 270.3876804468884 L 206.7229292049479 273.08146167826004 L 209.30078681844145 271.1742574520588 L 212.6658405555395 276.5618199148021 L 215.243698169033 274.6546156886008 L 218.608751906131 280.04217815134416 L 213.45303667914396 283.8565866037467 L 210.08798294204593 278.46902414100333 L 208.4141554884979 279.70738997495346 L 203.36657488285084 271.6260462808385 L 205.0404023363989 270.3876804468884 
M 208.4804600329574 279.83182069156294 L 205.47409080941583 282.63080434949063 L 208.7266139985293 287.7539665011631 L 204.48114508830938 291.7065741871703 L 201.2286218991959 286.5834120354978 L 203.24828909030276 284.70306566350376 L 199.99576590118932 279.5799035118313 L 202.22156762030238 277.50764219781814 L 200.59530602574566 274.94606112198187 L 203.6016752492872 272.1470774640542 L 208.4804600329574 279.83182069156294 
M 204.40773003200516 291.5934823129336 L 204.21239219419678 291.78882015074197 L 201.12276655373233 286.87602110132894 L 201.31810439154074 286.68068326352056 L 204.40773003200516 291.5934823129336 
M 192.26988589989904 283.7252647203461 L 199.99395000106009 296.00726234387866 L 197.50053304064303 298.5006793042958 L 189.77646893948196 286.2186816807632 L 192.26988589989904 283.7252647203461 
M 197.361589038288 298.3889158685403 L 192.3035973653441 304.2378728749852 L 190.85613363523055 301.7872590642888 L 194.44609955190356 297.63589669381616 L 193.16188361090056 295.4616678993637 L 189.57191769422752 299.6130302698363 L 188.12445396411397 297.1624164591399 L 191.71441988078698 293.01105408866727 L 190.37578801008044 290.7446969554668 L 186.78582209340743 294.8960593259394 L 185.33835836329385 292.44544551524297 L 190.39635003623778 286.596488508798 L 197.361589038288 298.3889158685403 
M 182.18239006510007 296.6573310578958 L 188.69795099950915 308.2667705311727 L 184.47566268878592 313.14933744608845 L 179.31411676105873 303.95248461335194 L 180.05490061346487 303.0958574806959 L 178.70088560678298 300.6832708401555 L 182.18239006510007 296.6573310578958 
M 182.61022216742842 307.64893452412167 L 181.86943831502228 308.50556165677773 L 183.12164768210403 310.7367508055481 L 183.86243153451016 309.88012367289207 L 182.61022216742842 307.64893452412167 
M 184.41960627912326 313.12322891156515 L 181.8755737096103 316.37796972604224 L 180.67985116981038 314.1685172017906 L 179.06402416545228 316.2357462786673 L 177.77108841103447 313.8466634678911 L 179.38691541539256 311.7794343910144 L 176.94686372848375 307.2707141992488 L 175.33103672412565 309.33794327612554 L 174.03810096970784 306.9488604653493 L 177.269754978424 302.81440231159587 L 178.56269073284184 305.20348512237206 L 179.49089629799667 304.0159733847717 L 184.41960627912326 313.12322891156515 
M 181.9309479849055 308.5246935765373 L 181.00274241975066 309.7122053141377 L 182.1984649595506 311.92165783838936 L 183.12667052470545 310.73414610078896 L 181.9309479849055 308.5246935765373 
M 164.3146884006694 322.1830000220888 L 169.0712758109581 331.22859952405656 L 170.41725538350227 329.0233891722036 L 171.66503866864704 331.3962979172958 L 168.45859421832532 336.6496350694528 L 162.45422352289188 325.23112682239287 L 164.3146884006694 322.1830000220888 
M 168.4235394361024 336.5375383308141 L 165.76474831170358 339.49658481595884 L 164.5623428346055 337.2301393361965 L 166.2058429656293 335.40103992277767 L 161.62223712436057 326.7612815901498 L 162.63752811773554 325.63133451842384 L 168.4235394361024 336.5375383308141 
M 156.6917367312891 332.2485798304062 L 162.47774804965596 343.1547836427964 L 162.28439166489878 343.36997562438745 L 156.49838034653192 332.4637718119972 L 156.6917367312891 332.2485798304062 
M 162.30391386691494 342.8687445410794 L 158.2136387470364 344.1687522593683 L 156.27680798449555 340.74325438199605 L 154.10384691913472 341.4338842476453 L 156.0406776816756 344.8593821250176 L 153.06785339108058 345.8042316546025 L 148.12932076946245 337.0698944373983 L 151.10214506005747 336.1250449078134 L 153.07755810870472 339.61877979469506 L 155.25051917406554 338.9281499290458 L 153.2751061254183 335.4344150421641 L 157.36538124529685 334.1344073238752 L 162.30391386691494 342.8687445410794 
M 152.98609170756828 345.3166087270691 L 152.0719161623983 345.3664213476634 L 148.56340395630008 338.7769058495364 L 149.47757950147005 338.72709322894207 L 152.98609170756828 345.3166087270691 
M 145.66999343811543 338.93456524124457 L 149.17850564421366 345.5240807393716 L 143.93451851015743 345.80982098137486 L 143.20540581732763 344.4404372919203 L 145.55598243319923 344.31235644162524 L 144.90910049519988 343.0974145216581 L 142.55852387932828 343.2254953719532 L 141.82941118649848 341.85611168249864 L 144.17998780237008 341.72803083220356 L 143.50569561276058 340.4616083224073 L 141.15511899688897 340.5896891727023 L 140.4260063040592 339.22030548324784 L 145.66999343811543 338.93456524124457 
M 143.59408082304287 345.8931437932277 L 143.2829882288492 345.8931437932277 L 143.35191478938037 344.43583756059803 L 143.663007383574 344.43583756059803 L 143.59408082304287 345.8931437932277 
M 143.7241602718648 343.1428891737537 L 143.41306767767114 343.1428891737537 L 143.4819942382023 341.68558294112404 L 143.79308683239594 341.68558294112404 L 143.7241602718648 343.1428891737537 
M 143.85683094476684 340.3378486056846 L 143.5457383505732 340.3378486056846 L 143.61466491110434 338.88054237305494 L 143.925757505298 338.88054237305494 L 143.85683094476684 340.3378486056846 
M 138.64011239881356 338.88054237305494 L 138.30843571655845 345.8931437932277 L 137.76188319104097 345.8931437932277 L 138.09355987329607 338.88054237305494 L 138.64011239881356 338.88054237305494 
M 137.3607014796474 345.74263329538576 L 135.95997561375196 345.3525150506961 L 140.6134415295167 340.6697818221316 L 138.52402506828182 340.0878553352087 L 139.687391547223 338.91717202806757 L 143.17753387435332 339.88921675968004 L 137.3607014796474 345.74263329538576 
M 140.95383910609257 340.4629105912428 L 135.13120838081338 342.44480195251464 L 135.51185514572862 341.3986988168022 L 134.05619746440883 341.8941716571202 L 135.03122158095545 339.21458554283447 L 142.30950998755443 336.73722134124466 L 142.09577940083827 337.32460118410563 L 139.18446403819868 338.3155468647415 L 138.80381727328344 339.3616500004539 L 141.71513263592306 338.370704319818 L 140.95383910609257 340.4629105912428 
M 137.2912979637871 339.8764772485968 L 137.67194472870233 338.8303741128844 L 136.33001030373563 339.2871381375525 L 135.9493635388204 340.3332412732649 L 137.2912979637871 339.8764772485968 
M 135.12787794873776 338.8239810193645 L 135.27895393720772 338.5316233458333 L 136.29749579292888 339.21361606805624 L 136.64201953465317 338.54690416613926 L 140.71618695753793 341.274875055031 L 140.2205872273437 342.2339446304792 L 135.12787794873776 338.8239810193645 
M 141.40523444098645 339.9414512511971 L 139.36815072954406 338.57746580675126 L 139.71267447126831 337.91075390483434 L 138.69413261554715 337.2287611826114 L 139.0386563572714 336.56204928069445 L 138.0201145015502 335.8800565584715 L 137.3310670181017 337.2134803623054 L 136.3125251623805 336.53148764008245 L 137.63254965098483 333.9770162617973 L 139.66963336242722 335.34100170624316 L 139.38318009899567 335.89533737877747 L 140.40172195471686 336.5773301010004 L 140.0571982129926 337.24404200291735 L 141.0757400687138 337.9260347251403 L 141.7067170738696 336.704987150689 L 142.7252589295908 337.3869798729119 L 141.40523444098645 339.9414512511971 
M 137.5785304687489 333.7826329510031 L 137.75010317504996 333.54499957978413 L 139.41557121347543 336.16345034445857 L 139.24399850717438 336.4010837156776 L 137.5785304687489 333.7826329510031 
M 140.90946654559986 339.01953448035204 L 141.08103925190088 338.781901109133 L 141.91377327111363 340.0911264914702 L 141.74220056481258 340.32875986268925 L 140.90946654559986 339.01953448035204 
M 145.9854373930893 334.4517489200814 L 143.48723533545112 330.52407277306975 L 142.4693193049572 331.9339171659169 L 141.66911395836996 330.67583340007724 L 140.65119792787604 332.08567779292446 L 139.78593523603783 330.7253107940897 L 141.82176729702564 327.90562200839526 L 142.6545013162384 329.2148473907325 L 143.67058930166672 327.8075348954175 L 147.00152537851764 333.0444364247664 L 145.9854373930893 334.4517489200814 
M 143.53373268591042 327.9745742701071 L 145.12141894202747 326.2221115468203 L 143.87152164016726 324.53218861370857 L 147.0412018182249 321.03354627465353 L 148.33992323343904 322.78948182233995 L 146.7550831444102 324.5388029918675 L 147.95615633291652 326.16271331040457 L 146.3713162438877 327.9120344799321 L 150.1210081494683 332.98180327926747 L 148.53332189335126 334.7342660025542 L 143.53373268591042 327.9745742701071 
M 162.27526377054681 318.0431995521805 L 154.33076743534443 308.3641308772168 L 157.41200462413522 303.0702784316421 L 165.35650095933758 312.7493471066059 L 162.27526377054681 318.0431995521805 
M 163.16852876585645 311.6605429098184 L 163.70553531467834 310.73791564759 L 159.06297026879446 305.08170989065803 L 158.52596371997257 306.0043371528864 L 163.16852876585645 311.6605429098184 
M 157.36816141374516 303.05283438824966 L 159.52855909455562 299.6548107573244 L 161.16036203975045 301.6096775636651 L 162.52955394968185 299.4561173619743 L 167.36122048271963 305.2443557963737 L 165.9920285727882 307.39791599806455 L 167.6875738205297 309.429144789028 L 165.52717613971922 312.82716841995324 L 157.36816141374516 303.05283438824966 
M 163.83163089197774 310.79593962898986 L 164.56935260387513 309.63559964513394 L 159.80142837338403 303.9237231953572 L 159.06370666148663 305.08406317921305 L 163.83163089197774 310.79593962898986 
M 173.56049668891788 300.8901953617553 L 171.87899109086146 298.91322556709224 L 170.4044258763964 301.07484804502377 L 165.35990908222718 295.14393866103484 L 166.8344742966922 292.9823161831033 L 165.15296869863582 291.0053463884403 L 167.71610868348967 287.24793983158264 L 176.12363667377176 297.1327888048976 L 173.56049668891788 300.8901953617553 
M 173.2878724929024 296.67437770655675 L 174.37644726329125 295.07859362763054 L 169.46329809397017 289.30213500884963 L 168.37472332358132 290.8979190877758 L 173.2878724929024 296.67437770655675 
M 167.6148643078073 287.21125021975394 L 169.7264361957168 284.52403090952004 L 171.50537250324362 286.5428115226719 L 173.17887817852926 284.4130821053771 L 178.51568710110973 290.4694239448327 L 176.8421814258241 292.5991533621275 L 178.6211177333509 294.61793397527936 L 176.5095458454414 297.30515328551326 L 167.6148643078073 287.21125021975394 
M 174.66111983840182 295.2075140546601 L 175.09918605102567 294.65002416172103 L 169.90135652747074 288.7513995576679 L 169.4632903148469 289.308889450607 L 174.66111983840182 295.2075140546601 
M 185.92698843091375 286.0630426701702 L 183.9300532244698 283.90216584133634 L 182.2279282353315 286.20282971471045 L 176.4623408723655 279.96390714123515 L 178.1644658615038 277.66324326786105 L 176.31767615930377 275.6648383810447 L 179.12213710228252 271.8742107732177 L 181.11907230872646 274.03508760205165 L 180.016736354886 275.52505133650453 L 185.63217821360809 281.60150196796224 L 186.73451416744854 280.11153823350935 L 188.7314493738925 282.2724150623432 L 185.92698843091375 286.0630426701702 
M 179.02933755030568 271.8456624257631 L 183.51651116909267 266.6567876165914 L 185.6035210598302 268.85591061863573 L 181.11634744104322 274.0447854278074 L 179.02933755030568 271.8456624257631 
M 186.9850820210119 280.2287854485937 L 187.65724268850335 279.45151274832205 L 183.71859996237464 275.3012881354414 L 187.53361291367014 270.88968602654137 L 191.47225563979885 275.03991063942203 L 189.56474916415112 277.245711693872 L 191.65175905488863 279.4448346959163 L 189.0720919117494 282.42790845063803 L 186.9850820210119 280.2287854485937 " fill='black'/>
</g></svg>